<svg xmlns="http://www.w3.org/2000/svg" viewBox="0 0 32 32" shape-rendering="crispEdges">
  <!-- 原创像素坦克图标：32x32 网格，坦克居中占 24x24（四周留 12.5% 安全边距）。
       配色呼应 src/classic/render/sprites.ts 的玩家坦克金黄主色，形状独立设计：
       炮塔是车体中段一个独立描边的方块（内填车体金 + 中心小块高光点缀），
       炮管从炮塔中心一路穿过车体前缘直达安全边距边界，穿过车体的一段加深金描边区隔。 -->
  <rect width="32" height="32" fill="#000000"/>
  <rect x="14" y="4" width="4" height="1" fill="#8c8c8c"/>
  <rect x="14" y="5" width="4" height="1" fill="#8c8c8c"/>
  <rect x="14" y="6" width="4" height="1" fill="#8c8c8c"/>
  <rect x="14" y="7" width="4" height="1" fill="#8c8c8c"/>
  <rect x="14" y="8" width="4" height="1" fill="#8c8c8c"/>
  <rect x="14" y="9" width="4" height="1" fill="#8c8c8c"/>
  <rect x="14" y="10" width="4" height="1" fill="#8c8c8c"/>
  <rect x="4" y="11" width="1" height="1" fill="#4a4a4a"/>
  <rect x="5" y="11" width="2" height="1" fill="#2a2a2a"/>
  <rect x="7" y="11" width="1" height="1" fill="#4a3500"/>
  <rect x="8" y="11" width="5" height="1" fill="#f2c230"/>
  <rect x="13" y="11" width="1" height="1" fill="#4a3500"/>
  <rect x="14" y="11" width="4" height="1" fill="#8c8c8c"/>
  <rect x="18" y="11" width="1" height="1" fill="#4a3500"/>
  <rect x="19" y="11" width="5" height="1" fill="#f2c230"/>
  <rect x="24" y="11" width="1" height="1" fill="#4a3500"/>
  <rect x="25" y="11" width="2" height="1" fill="#2a2a2a"/>
  <rect x="27" y="11" width="1" height="1" fill="#4a4a4a"/>
  <rect x="4" y="12" width="3" height="1" fill="#2a2a2a"/>
  <rect x="7" y="12" width="1" height="1" fill="#4a3500"/>
  <rect x="8" y="12" width="5" height="1" fill="#f2c230"/>
  <rect x="13" y="12" width="1" height="1" fill="#4a3500"/>
  <rect x="14" y="12" width="4" height="1" fill="#8c8c8c"/>
  <rect x="18" y="12" width="1" height="1" fill="#4a3500"/>
  <rect x="19" y="12" width="5" height="1" fill="#f2c230"/>
  <rect x="24" y="12" width="1" height="1" fill="#4a3500"/>
  <rect x="25" y="12" width="3" height="1" fill="#2a2a2a"/>
  <rect x="4" y="13" width="1" height="1" fill="#2a2a2a"/>
  <rect x="5" y="13" width="1" height="1" fill="#ffffff"/>
  <rect x="6" y="13" width="1" height="1" fill="#2a2a2a"/>
  <rect x="7" y="13" width="1" height="1" fill="#4a3500"/>
  <rect x="8" y="13" width="5" height="1" fill="#f2c230"/>
  <rect x="13" y="13" width="1" height="1" fill="#4a3500"/>
  <rect x="14" y="13" width="4" height="1" fill="#8c8c8c"/>
  <rect x="18" y="13" width="1" height="1" fill="#4a3500"/>
  <rect x="19" y="13" width="5" height="1" fill="#f2c230"/>
  <rect x="24" y="13" width="1" height="1" fill="#4a3500"/>
  <rect x="25" y="13" width="1" height="1" fill="#2a2a2a"/>
  <rect x="26" y="13" width="1" height="1" fill="#ffffff"/>
  <rect x="27" y="13" width="1" height="1" fill="#2a2a2a"/>
  <rect x="4" y="14" width="1" height="1" fill="#4a4a4a"/>
  <rect x="5" y="14" width="2" height="1" fill="#2a2a2a"/>
  <rect x="7" y="14" width="1" height="1" fill="#4a3500"/>
  <rect x="8" y="14" width="5" height="1" fill="#f2c230"/>
  <rect x="13" y="14" width="1" height="1" fill="#4a3500"/>
  <rect x="14" y="14" width="4" height="1" fill="#8c8c8c"/>
  <rect x="18" y="14" width="1" height="1" fill="#4a3500"/>
  <rect x="19" y="14" width="5" height="1" fill="#f2c230"/>
  <rect x="24" y="14" width="1" height="1" fill="#4a3500"/>
  <rect x="25" y="14" width="2" height="1" fill="#2a2a2a"/>
  <rect x="27" y="14" width="1" height="1" fill="#4a4a4a"/>
  <rect x="4" y="15" width="3" height="1" fill="#2a2a2a"/>
  <rect x="7" y="15" width="1" height="1" fill="#4a3500"/>
  <rect x="8" y="15" width="5" height="1" fill="#f2c230"/>
  <rect x="13" y="15" width="1" height="1" fill="#4a3500"/>
  <rect x="14" y="15" width="4" height="1" fill="#8c8c8c"/>
  <rect x="18" y="15" width="1" height="1" fill="#4a3500"/>
  <rect x="19" y="15" width="5" height="1" fill="#f2c230"/>
  <rect x="24" y="15" width="1" height="1" fill="#4a3500"/>
  <rect x="25" y="15" width="3" height="1" fill="#2a2a2a"/>
  <rect x="4" y="16" width="3" height="1" fill="#2a2a2a"/>
  <rect x="7" y="16" width="1" height="1" fill="#4a3500"/>
  <rect x="8" y="16" width="3" height="1" fill="#f2c230"/>
  <rect x="11" y="16" width="10" height="1" fill="#4a3500"/>
  <rect x="21" y="16" width="3" height="1" fill="#f2c230"/>
  <rect x="24" y="16" width="1" height="1" fill="#4a3500"/>
  <rect x="25" y="16" width="3" height="1" fill="#2a2a2a"/>
  <rect x="4" y="17" width="1" height="1" fill="#4a4a4a"/>
  <rect x="5" y="17" width="2" height="1" fill="#2a2a2a"/>
  <rect x="7" y="17" width="1" height="1" fill="#4a3500"/>
  <rect x="8" y="17" width="3" height="1" fill="#f2c230"/>
  <rect x="11" y="17" width="1" height="1" fill="#4a3500"/>
  <rect x="12" y="17" width="8" height="1" fill="#f2c230"/>
  <rect x="20" y="17" width="1" height="1" fill="#4a3500"/>
  <rect x="21" y="17" width="3" height="1" fill="#f2c230"/>
  <rect x="24" y="17" width="1" height="1" fill="#4a3500"/>
  <rect x="25" y="17" width="2" height="1" fill="#2a2a2a"/>
  <rect x="27" y="17" width="1" height="1" fill="#4a4a4a"/>
  <rect x="4" y="18" width="3" height="1" fill="#2a2a2a"/>
  <rect x="7" y="18" width="1" height="1" fill="#4a3500"/>
  <rect x="8" y="18" width="3" height="1" fill="#f2c230"/>
  <rect x="11" y="18" width="1" height="1" fill="#4a3500"/>
  <rect x="12" y="18" width="2" height="1" fill="#f2c230"/>
  <rect x="14" y="18" width="4" height="1" fill="#fff3b0"/>
  <rect x="18" y="18" width="2" height="1" fill="#f2c230"/>
  <rect x="20" y="18" width="1" height="1" fill="#4a3500"/>
  <rect x="21" y="18" width="3" height="1" fill="#f2c230"/>
  <rect x="24" y="18" width="1" height="1" fill="#4a3500"/>
  <rect x="25" y="18" width="3" height="1" fill="#2a2a2a"/>
  <rect x="4" y="19" width="1" height="1" fill="#2a2a2a"/>
  <rect x="5" y="19" width="1" height="1" fill="#ffffff"/>
  <rect x="6" y="19" width="1" height="1" fill="#2a2a2a"/>
  <rect x="7" y="19" width="1" height="1" fill="#4a3500"/>
  <rect x="8" y="19" width="3" height="1" fill="#f2c230"/>
  <rect x="11" y="19" width="1" height="1" fill="#4a3500"/>
  <rect x="12" y="19" width="2" height="1" fill="#f2c230"/>
  <rect x="14" y="19" width="4" height="1" fill="#fff3b0"/>
  <rect x="18" y="19" width="2" height="1" fill="#f2c230"/>
  <rect x="20" y="19" width="1" height="1" fill="#4a3500"/>
  <rect x="21" y="19" width="3" height="1" fill="#f2c230"/>
  <rect x="24" y="19" width="1" height="1" fill="#4a3500"/>
  <rect x="25" y="19" width="1" height="1" fill="#2a2a2a"/>
  <rect x="26" y="19" width="1" height="1" fill="#ffffff"/>
  <rect x="27" y="19" width="1" height="1" fill="#2a2a2a"/>
  <rect x="4" y="20" width="1" height="1" fill="#4a4a4a"/>
  <rect x="5" y="20" width="2" height="1" fill="#2a2a2a"/>
  <rect x="7" y="20" width="1" height="1" fill="#4a3500"/>
  <rect x="8" y="20" width="3" height="1" fill="#f2c230"/>
  <rect x="11" y="20" width="1" height="1" fill="#4a3500"/>
  <rect x="12" y="20" width="8" height="1" fill="#f2c230"/>
  <rect x="20" y="20" width="1" height="1" fill="#4a3500"/>
  <rect x="21" y="20" width="3" height="1" fill="#f2c230"/>
  <rect x="24" y="20" width="1" height="1" fill="#4a3500"/>
  <rect x="25" y="20" width="2" height="1" fill="#2a2a2a"/>
  <rect x="27" y="20" width="1" height="1" fill="#4a4a4a"/>
  <rect x="4" y="21" width="3" height="1" fill="#2a2a2a"/>
  <rect x="7" y="21" width="1" height="1" fill="#4a3500"/>
  <rect x="8" y="21" width="3" height="1" fill="#f2c230"/>
  <rect x="11" y="21" width="10" height="1" fill="#4a3500"/>
  <rect x="21" y="21" width="3" height="1" fill="#f2c230"/>
  <rect x="24" y="21" width="1" height="1" fill="#4a3500"/>
  <rect x="25" y="21" width="3" height="1" fill="#2a2a2a"/>
  <rect x="4" y="22" width="3" height="1" fill="#2a2a2a"/>
  <rect x="7" y="22" width="1" height="1" fill="#4a3500"/>
  <rect x="8" y="22" width="16" height="1" fill="#f2c230"/>
  <rect x="24" y="22" width="1" height="1" fill="#4a3500"/>
  <rect x="25" y="22" width="3" height="1" fill="#2a2a2a"/>
  <rect x="4" y="23" width="1" height="1" fill="#4a4a4a"/>
  <rect x="5" y="23" width="2" height="1" fill="#2a2a2a"/>
  <rect x="7" y="23" width="1" height="1" fill="#4a3500"/>
  <rect x="8" y="23" width="16" height="1" fill="#f2c230"/>
  <rect x="24" y="23" width="1" height="1" fill="#4a3500"/>
  <rect x="25" y="23" width="2" height="1" fill="#2a2a2a"/>
  <rect x="27" y="23" width="1" height="1" fill="#4a4a4a"/>
  <rect x="4" y="24" width="1" height="1" fill="#2a2a2a"/>
  <rect x="5" y="24" width="1" height="1" fill="#ffffff"/>
  <rect x="6" y="24" width="1" height="1" fill="#2a2a2a"/>
  <rect x="7" y="24" width="1" height="1" fill="#4a3500"/>
  <rect x="8" y="24" width="16" height="1" fill="#f2c230"/>
  <rect x="24" y="24" width="1" height="1" fill="#4a3500"/>
  <rect x="25" y="24" width="1" height="1" fill="#2a2a2a"/>
  <rect x="26" y="24" width="1" height="1" fill="#ffffff"/>
  <rect x="27" y="24" width="1" height="1" fill="#2a2a2a"/>
  <rect x="4" y="25" width="3" height="1" fill="#2a2a2a"/>
  <rect x="7" y="25" width="1" height="1" fill="#4a3500"/>
  <rect x="8" y="25" width="16" height="1" fill="#b8860f"/>
  <rect x="24" y="25" width="1" height="1" fill="#4a3500"/>
  <rect x="25" y="25" width="3" height="1" fill="#2a2a2a"/>
  <rect x="4" y="26" width="1" height="1" fill="#4a4a4a"/>
  <rect x="5" y="26" width="2" height="1" fill="#2a2a2a"/>
  <rect x="7" y="26" width="1" height="1" fill="#4a3500"/>
  <rect x="8" y="26" width="16" height="1" fill="#b8860f"/>
  <rect x="24" y="26" width="1" height="1" fill="#4a3500"/>
  <rect x="25" y="26" width="2" height="1" fill="#2a2a2a"/>
  <rect x="27" y="26" width="1" height="1" fill="#4a4a4a"/>
  <rect x="4" y="27" width="3" height="1" fill="#2a2a2a"/>
  <rect x="7" y="27" width="18" height="1" fill="#4a3500"/>
  <rect x="25" y="27" width="3" height="1" fill="#2a2a2a"/>
</svg>
